# xmcd CD database file
#
# Track frame offsets:
#	150
#	13032
#	38680
#	58592
#
# Disc length: 1119 seconds
#
# Revision: 0
# Processed by: cddbd v1.5.1PL0 Copyright (c) Steve Scherf et al.
# Submitted via: CDex 1.51
#
DISCID=28045d04
DTITLE=Rin' - 夢花火
DYEAR=2005
DGENRE=JPop
TTITLE0=夢花火 -Rin' Three pieces-
TTITLE1=夢花火
TTITLE2=Flashback -Rin' Version-
TTITLE3=夢花火 -instrumental-
EXTD=YEAR: 2005
EXTT0=
EXTT1=
EXTT2=
EXTT3=
PLAYORDER=
